<?xml version="1.0" encoding="utf-8"?>
<!-- Generator: Adobe Illustrator 25.0.0, SVG Export Plug-In . SVG Version: 6.00 Build 0)  -->
<svg version="1.1" id="Calque_1" xmlns="http://www.w3.org/2000/svg" xmlns:xlink="http://www.w3.org/1999/xlink" x="0px" y="0px"
	 viewBox="0 0 148 148" style="enable-background:new 0 0 148 148;" xml:space="preserve">
<style type="text/css">
	.st0{fill:#FED3A8;}
</style>
<path class="st0" d="M74,0C33.1,0,0,33.1,0,74s33.1,74,74,74s74-33.1,74-74S114.9,0,74,0z M134.5,108c0,6.3-5.1,11.3-11.3,11.3H24.8
	c-6.3,0-11.3-5.1-11.3-11.3V59.7c0-1.2,1.3-1.8,2.3-1.1c5.3,4.1,12.3,9.3,36.4,26.8c5,3.6,13.4,11.3,21.8,11.2
	c8.4,0.1,17-7.8,21.8-11.2c24.1-17.5,31.1-22.8,36.4-26.9c0.9-0.7,2.3,0,2.3,1.1V108z M132.3,48.9c-7.2,5.7-9.6,7.7-41,30.4
	c-4,2.9-11.9,9.9-17.3,9.8c-5.5,0.1-13.4-6.9-17.3-9.8c-31.4-22.8-33.7-24.8-41-30.4c-1.4-1.1-2.2-2.7-2.2-4.5V40
	c0-6.3,5.1-11.3,11.3-11.3h98.3c6.3,0,11.3,5.1,11.3,11.3v4.5C134.5,46.2,133.7,47.9,132.3,48.9z"/>
</svg>
