<?xml version="1.0" encoding="utf-8"?>
<!-- Generator: Adobe Illustrator 25.0.0, SVG Export Plug-In . SVG Version: 6.00 Build 0)  -->
<svg version="1.1" id="Calque_1" xmlns="http://www.w3.org/2000/svg" xmlns:xlink="http://www.w3.org/1999/xlink" x="0px" y="0px"
	 viewBox="0 0 98.6 40.7" style="enable-background:new 0 0 98.6 40.7;" xml:space="preserve">
<style type="text/css">
	.st0{display:none;}
</style>
<g id="grappe_vin">
	<g>
		<path d="M52.9,21.9c-2,0-3-1.7-3.6-2.8c-0.7,1.1-2.8,3.7-5.8,2.2c-2.5-1.2-3.2-1.4-3.4-1.4c0,0-0.1,0-0.1,0L39.5,20l0.1-0.5
			l0.1-0.1c0,0,0.1,0,0.2,0c1.3-0.2,3-0.7,3.3-1.2c-0.2,0-0.6,0-0.9,0c-1.7,0-4.9-0.1-5.7-3.5l-0.1-0.2l0.2-0.1
			c0.6-0.2,1.1,0,1.4,0.2c0.3,0.1,0.5,0.2,0.7,0.2c-0.1-0.1-0.2-0.2-0.3-0.3c-0.6-0.6-1.6-1.6-1.5-3.2l0-0.1l0.1-0.1
			c1.6-1,2.7,0.6,3.2,1.3c0-0.3-0.1-0.8-0.5-1.2l-0.4-0.5l0.6,0.1c2.9,0.5,3.3,1.2,4.6,3.6l0.3,0.6c0.6,0.5,0.8,0.4,0.9,0.4
			c0.1-0.1,0.2-0.2,0.2-0.5c0-0.4-0.2-0.9-0.4-1.1c-0.6-0.4-1.5-1.8-1.9-3.5c-0.3-1.3-0.4-3.2,0.7-5.1L45,4.9L45.2,5
			c0.5,0.2,0.7,0.5,0.8,0.8c0.1,0.1,0.1,0.3,0.2,0.4c-0.3-2.5,1.3-4.2,2.9-6L49.3,0l0.2,0.2c1.6,1.8,3.2,3.5,2.9,6
			c0.1-0.1,0.1-0.3,0.2-0.4c0.1-0.3,0.2-0.6,0.8-0.8l0.2-0.1l0.1,0.2c1.2,1.9,1,3.8,0.7,5.1c-0.4,1.7-1.3,3.1-1.9,3.5
			c-0.3,0.2-0.5,0.7-0.4,1.1c0,0.2,0.1,0.4,0.2,0.5c0.1,0,0.4,0.1,0.9-0.4l0.3-0.6c1.3-2.3,1.7-3,4.6-3.6l0.6-0.1l-0.4,0.5
			c-0.3,0.4-0.4,0.9-0.5,1.2c0.5-0.8,1.7-2.3,3.2-1.3l0.1,0.1l0,0.1c0.1,1.6-0.9,2.6-1.5,3.2c-0.1,0.1-0.2,0.2-0.3,0.3
			c0.3,0,0.5,0,0.7-0.2c0.4-0.2,0.8-0.3,1.4-0.2l0.2,0.1l-0.1,0.2c-0.8,3.4-4,3.5-5.7,3.5c-0.3,0-0.7,0-0.9,0c0.4,0.5,2.1,1,3.3,1.2
			c0.1,0,0.2,0,0.2,0l0.1,0.1L59,20l-0.4-0.1c0,0-0.1,0-0.1,0c-0.2,0-0.9,0.2-3.4,1.4C54.3,21.7,53.5,21.9,52.9,21.9z M49.3,18
			l0.2,0.4c0.7,1.5,2,4,5.4,2.4c1.2-0.6,2.1-0.9,2.6-1.1c-1.1-0.3-2.5-0.7-2.8-1.4c-0.1-0.2,0-0.3,0-0.4c0.2-0.3,0.6-0.3,1.3-0.3
			c1.7,0,4.4-0.1,5.2-2.8c-0.3,0-0.6,0.1-0.8,0.2c-0.3,0.1-0.7,0.3-1.2,0.2c-0.2-0.1-0.3-0.2-0.3-0.3c-0.1-0.3,0.1-0.5,0.5-0.8
			c0.6-0.6,1.4-1.4,1.4-2.7c-1-0.6-1.9,0.4-2.5,1.4c-0.2,0.3-0.2,0.4-0.4,0.4c-0.1,0-0.2,0-0.3-0.2c-0.2-0.2-0.2-1,0.2-1.7
			c-2.2,0.5-2.5,1.1-3.7,3.2l-0.4,0.7c-0.6,0.5-1.1,0.7-1.5,0.5c-0.3-0.1-0.5-0.5-0.5-0.9c0-0.6,0.2-1.3,0.7-1.6
			c0.4-0.2,1.3-1.4,1.7-3.2c0.3-1.2,0.4-2.9-0.6-4.5C53.2,5.6,53.1,5.8,53,6c-0.1,0.3-0.3,0.7-0.9,1.2l-0.6,0.5l0.2-0.7
			c0.6-2.5-0.5-4-2.5-6.2c-2,2.2-3.1,3.7-2.5,6.2L47,7.7l-0.6-0.5c-0.6-0.5-0.8-0.9-0.9-1.2c-0.1-0.2-0.1-0.3-0.3-0.4
			c-0.9,1.7-0.8,3.4-0.6,4.5c0.4,1.8,1.3,3,1.7,3.2c0.5,0.3,0.7,1,0.7,1.6c0,0.4-0.2,0.8-0.5,0.9c-0.4,0.2-0.9,0-1.5-0.5l-0.1-0.1
			l-0.3-0.6c-1.2-2.1-1.5-2.7-3.7-3.2c0.3,0.7,0.3,1.4,0.2,1.7c-0.1,0.1-0.2,0.2-0.3,0.2c-0.1,0-0.2-0.1-0.4-0.4
			c-0.7-1-1.5-1.9-2.5-1.4c-0.1,1.3,0.8,2.1,1.4,2.7c0.3,0.3,0.5,0.5,0.5,0.8c0,0.1-0.1,0.2-0.3,0.3c-0.5,0.1-0.9,0-1.2-0.2
			c-0.3-0.1-0.5-0.2-0.8-0.2c0.8,2.8,3.5,2.8,5.2,2.8c0.8,0,1.2,0,1.3,0.3c0,0.1,0.1,0.2,0,0.4c-0.3,0.7-1.7,1.2-2.8,1.4
			c0.6,0.2,1.4,0.6,2.6,1.1c3.3,1.6,5.3-2.3,5.4-2.4L49.3,18z"/>
	</g>
	<g>
		<g>
			<path d="M40.5,26.2c-1,0-1.8-0.8-1.8-1.8c0-1,0.8-1.8,1.8-1.8s1.8,0.8,1.8,1.8C42.3,25.4,41.5,26.2,40.5,26.2z M40.5,23
				c-0.7,0-1.3,0.6-1.3,1.3s0.6,1.3,1.3,1.3c0.7,0,1.3-0.6,1.3-1.3S41.2,23,40.5,23z"/>
		</g>
		<g>
			<path d="M44.9,26.2c-1,0-1.8-0.8-1.8-1.8c0-1,0.8-1.8,1.8-1.8s1.8,0.8,1.8,1.8C46.7,25.4,45.9,26.2,44.9,26.2z M44.9,23
				c-0.7,0-1.3,0.6-1.3,1.3s0.6,1.3,1.3,1.3c0.7,0,1.3-0.6,1.3-1.3S45.6,23,44.9,23z"/>
		</g>
		<g>
			<path d="M49.3,26.2c-1,0-1.8-0.8-1.8-1.8c0-1,0.8-1.8,1.8-1.8s1.8,0.8,1.8,1.8C51.1,25.4,50.3,26.2,49.3,26.2z M49.3,23
				c-0.7,0-1.3,0.6-1.3,1.3s0.6,1.3,1.3,1.3s1.3-0.6,1.3-1.3S50,23,49.3,23z"/>
		</g>
		<g>
			<path d="M53.7,26.2c-1,0-1.8-0.8-1.8-1.8c0-1,0.8-1.8,1.8-1.8s1.8,0.8,1.8,1.8C55.5,25.4,54.7,26.2,53.7,26.2z M53.7,23
				c-0.7,0-1.3,0.6-1.3,1.3s0.6,1.3,1.3,1.3s1.3-0.6,1.3-1.3S54.4,23,53.7,23z"/>
		</g>
		<g>
			<path d="M58.1,26.2c-1,0-1.8-0.8-1.8-1.8c0-1,0.8-1.8,1.8-1.8s1.8,0.8,1.8,1.8C59.9,25.4,59.1,26.2,58.1,26.2z M58.1,23
				c-0.7,0-1.3,0.6-1.3,1.3s0.6,1.3,1.3,1.3s1.3-0.6,1.3-1.3S58.8,23,58.1,23z"/>
		</g>
	</g>
	<g>
		<g>
			<path d="M42.7,29.8c-1,0-1.8-0.8-1.8-1.8s0.8-1.8,1.8-1.8s1.8,0.8,1.8,1.8S43.7,29.8,42.7,29.8z M42.7,26.6
				c-0.7,0-1.3,0.6-1.3,1.3s0.6,1.3,1.3,1.3c0.7,0,1.3-0.6,1.3-1.3S43.4,26.6,42.7,26.6z"/>
		</g>
		<g>
			<path d="M47.1,29.8c-1,0-1.8-0.8-1.8-1.8s0.8-1.8,1.8-1.8s1.8,0.8,1.8,1.8S48.1,29.8,47.1,29.8z M47.1,26.6
				c-0.7,0-1.3,0.6-1.3,1.3s0.6,1.3,1.3,1.3s1.3-0.6,1.3-1.3S47.8,26.6,47.1,26.6z"/>
		</g>
		<g>
			<path d="M51.5,29.8c-1,0-1.8-0.8-1.8-1.8s0.8-1.8,1.8-1.8s1.8,0.8,1.8,1.8S52.5,29.8,51.5,29.8z M51.5,26.6
				c-0.7,0-1.3,0.6-1.3,1.3s0.6,1.3,1.3,1.3s1.3-0.6,1.3-1.3S52.2,26.6,51.5,26.6z"/>
		</g>
		<g>
			<path d="M55.9,29.8c-1,0-1.8-0.8-1.8-1.8s0.8-1.8,1.8-1.8s1.8,0.8,1.8,1.8S56.9,29.8,55.9,29.8z M55.9,26.6
				c-0.7,0-1.3,0.6-1.3,1.3s0.6,1.3,1.3,1.3s1.3-0.6,1.3-1.3S56.6,26.6,55.9,26.6z"/>
		</g>
	</g>
	<g>
		<g>
			<path d="M44.9,33.4c-1,0-1.8-0.8-1.8-1.8c0-1,0.8-1.8,1.8-1.8s1.8,0.8,1.8,1.8C46.7,32.6,45.9,33.4,44.9,33.4z M44.9,30.3
				c-0.7,0-1.3,0.6-1.3,1.3s0.6,1.3,1.3,1.3c0.7,0,1.3-0.6,1.3-1.3S45.6,30.3,44.9,30.3z"/>
		</g>
		<g>
			<path d="M49.3,33.4c-1,0-1.8-0.8-1.8-1.8c0-1,0.8-1.8,1.8-1.8s1.8,0.8,1.8,1.8C51.1,32.6,50.3,33.4,49.3,33.4z M49.3,30.3
				c-0.7,0-1.3,0.6-1.3,1.3s0.6,1.3,1.3,1.3s1.3-0.6,1.3-1.3S50,30.3,49.3,30.3z"/>
		</g>
		<g>
			<path d="M53.7,33.4c-1,0-1.8-0.8-1.8-1.8c0-1,0.8-1.8,1.8-1.8s1.8,0.8,1.8,1.8C55.5,32.6,54.7,33.4,53.7,33.4z M53.7,30.3
				c-0.7,0-1.3,0.6-1.3,1.3s0.6,1.3,1.3,1.3s1.3-0.6,1.3-1.3S54.4,30.3,53.7,30.3z"/>
		</g>
	</g>
	<g>
		<g>
			<path d="M47.1,37.1c-1,0-1.8-0.8-1.8-1.8c0-1,0.8-1.8,1.8-1.8s1.8,0.8,1.8,1.8C48.9,36.2,48.1,37.1,47.1,37.1z M47.1,33.9
				c-0.7,0-1.3,0.6-1.3,1.3s0.6,1.3,1.3,1.3s1.3-0.6,1.3-1.3S47.8,33.9,47.1,33.9z"/>
		</g>
		<g>
			<path d="M51.5,37.1c-1,0-1.8-0.8-1.8-1.8c0-1,0.8-1.8,1.8-1.8s1.8,0.8,1.8,1.8C53.3,36.2,52.5,37.1,51.5,37.1z M51.5,33.9
				c-0.7,0-1.3,0.6-1.3,1.3s0.6,1.3,1.3,1.3s1.3-0.6,1.3-1.3S52.2,33.9,51.5,33.9z"/>
		</g>
	</g>
	<g>
		<g>
			<path d="M49.3,37.5c0.7,0,1.3,0.6,1.3,1.3s-0.6,1.3-1.3,1.3s-1.3-0.6-1.3-1.3S48.5,37.5,49.3,37.5 M49.3,37c-1,0-1.8,0.8-1.8,1.8
				s0.8,1.8,1.8,1.8s1.8-0.8,1.8-1.8S50.3,37,49.3,37L49.3,37z"/>
			<circle class="st0" cx="49.3" cy="38.8" r="1.3"/>
		</g>
	</g>
	<g>
		<rect x="64.2" y="21.4" width="29.8" height="0.5"/>
	</g>
	<g>
		<rect x="4.5" y="21.4" width="29.8" height="0.5"/>
	</g>
	<g>
		<path d="M95.5,28.2c-0.6,0-1.2-0.2-1.7-0.7c-0.5-0.5-0.8-1.1-0.8-1.7c0-0.5,0.2-1.1,0.5-1.5c0.4-0.4,0.9-0.6,1.4-0.7
			c0.9,0,1.7,0.7,1.8,1.6l-0.5,0c0-0.7-0.6-1.2-1.2-1.1c-0.4,0-0.8,0.2-1.1,0.5s-0.4,0.7-0.4,1.1c0,0.5,0.3,1,0.6,1.4
			c0.4,0.4,0.9,0.5,1.4,0.5c0.7,0,1.3-0.3,1.8-0.8c0.5-0.5,0.7-1.2,0.7-1.8c0-0.9-0.4-1.7-1.1-2.3c-0.6-0.6-1.5-0.9-2.3-0.9l0-0.5
			c1,0,2,0.3,2.7,1c0.7,0.7,1.2,1.6,1.2,2.6c0,0.8-0.2,1.6-0.8,2.2s-1.3,1-2.1,1C95.6,28.2,95.6,28.2,95.5,28.2z"/>
	</g>
	<g>
		<path d="M3,28.2c0,0-0.1,0-0.1,0c-1.7-0.1-3-1.5-2.9-3.2c0.1-2,1.8-3.6,3.8-3.6c0.1,0,0.1,0,0.2,0l0,0.5c-1.8-0.1-3.3,1.3-3.4,3.1
			c-0.1,1.4,1,2.6,2.4,2.7c0.5,0,1-0.2,1.4-0.5C4.8,26.8,5,26.3,5,25.8c0-0.4-0.1-0.8-0.4-1.1S4,24.2,3.5,24.1
			c-0.7,0-1.2,0.5-1.2,1.1l-0.5,0c0-0.9,0.8-1.6,1.8-1.6c0.5,0,1.1,0.3,1.4,0.7s0.6,0.9,0.5,1.5c0,0.7-0.3,1.3-0.8,1.7
			C4.3,27.9,3.7,28.2,3,28.2z"/>
	</g>
</g>
</svg>
