<?xml version="1.0" encoding="utf-8"?>
<!-- Generator: Adobe Illustrator 25.0.0, SVG Export Plug-In . SVG Version: 6.00 Build 0)  -->
<svg version="1.1" id="Calque_1" xmlns="http://www.w3.org/2000/svg" xmlns:xlink="http://www.w3.org/1999/xlink" x="0px" y="0px"
	 viewBox="0 0 500 499.9" style="enable-background:new 0 0 500 499.9;" xml:space="preserve">
<style type="text/css">
	.st0{fill:#FED3A8;}
</style>
<path class="st0" d="M303.4,250c0,29.5-23.9,53.3-53.4,53.3s-53.3-23.9-53.3-53.4c0-29.4,23.9-53.3,53.3-53.3
	c29.4-0.1,53.3,23.7,53.4,53.2C303.4,249.8,303.4,249.9,303.4,250z M381.2,250c0,23.3,1.9,73.3-6.4,94.3
	c-5.5,13.9-16.5,24.9-30.4,30.4c-21.1,8.4-71,6.4-94.3,6.4s-73.3,1.9-94.3-6.4c-13.9-5.5-24.9-16.5-30.4-30.4
	c-8.3-21.1-6.5-71.1-6.5-94.3s-1.8-73.3,6.4-94.3c5.5-13.9,16.5-24.9,30.4-30.4c21.1-8.4,71-6.4,94.3-6.4s73.3-1.9,94.3,6.4
	c13.9,5.5,24.9,16.5,30.4,30.4l0,0C383.1,176.7,381.2,226.7,381.2,250z M332,250c0-45.3-36.7-82-82-82s-82,36.7-82,82s36.7,82,82,82
	h0.2C295.4,331.9,332,295.2,332,250z M354.5,164.5c0-10.6-8.6-19.1-19.2-19.1c-10.6,0-19.1,8.6-19.1,19.2c0,10.6,8.6,19.1,19.2,19.1
	h0.1C346,183.6,354.6,175,354.5,164.5C354.5,164.5,354.5,164.5,354.5,164.5z M500,250c0,38.5-8.9,76.6-26,111.1
	c0,0.1-0.1,0.1-0.1,0.2c-4.5,9.1-9.5,17.8-15.1,26.3l0,0c-6.5,9.9-13.7,19.3-21.6,28.1l0,0c-6.7,7.6-13.8,14.7-21.4,21.4l0,0
	c-8.9,7.8-18.3,15.1-28.1,21.6l0,0c-8.4,5.6-17.2,10.6-26.3,15.1c-0.1,0-0.1,0.1-0.2,0.1c-34.5,17.1-72.6,26-111.1,26
	c-38.5,0-76.6-8.9-111.1-26c-0.1,0-0.1-0.1-0.2-0.1c-9.1-4.5-17.8-9.5-26.3-15.1l0,0c-9.9-6.5-19.3-13.7-28.1-21.6l0,0
	c-7.6-6.7-14.7-13.8-21.4-21.4l0,0c-7.8-8.9-15.1-18.3-21.6-28.1l0,0c-5.6-8.4-10.6-17.2-15.1-26.3c0-0.1-0.1-0.1-0.1-0.2
	c-34.8-70-34.9-152.2-0.2-222.2c0-0.1,0.1-0.1,0.1-0.2c4.5-9.1,9.5-17.8,15.1-26.3l0,0c6.5-9.9,13.7-19.3,21.6-28.1l0,0
	c6.7-7.6,13.8-14.7,21.4-21.4l0,0c8.9-7.8,18.3-15.1,28.1-21.6l0,0c8.4-5.6,17.2-10.6,26.3-15.1c0.1,0,0.1-0.1,0.2-0.1
	C173.3,8.9,211.4,0,250,0c38.5,0,76.6,8.9,111.1,26c0.1,0,0.1,0.1,0.2,0.1c9.1,4.5,17.8,9.5,26.3,15.1l0,0
	c9.9,6.5,19.3,13.7,28.1,21.6l0,0c7.6,6.7,14.7,13.8,21.4,21.4l0,0c7.8,8.9,15.1,18.3,21.6,28.1l0,0c5.6,8.4,10.6,17.2,15.1,26.3
	c0,0.1,0.1,0.1,0.1,0.2C491.1,173.3,500,211.4,500,250z M408.9,184.1c-1.2-25.6-7.2-48.3-25.8-67s-41.4-24.6-67-25.9
	c-26.4-1.5-105.6-1.5-132,0c-25.5,1.2-48.2,7.1-67,25.8s-24.6,41.4-25.9,67c-1.5,26.4-1.5,105.6,0,132c1.2,25.6,7.1,48.3,25.9,67
	s41.4,24.6,67,25.8c26.4,1.5,105.6,1.5,132,0c25.6-1.2,48.3-7.2,67-25.8s24.6-41.4,25.8-67C410.4,289.6,410.4,210.4,408.9,184.1z"/>
</svg>
