<?xml version="1.0" encoding="utf-8"?>
<!-- Generator: Adobe Illustrator 25.0.0, SVG Export Plug-In . SVG Version: 6.00 Build 0)  -->
<svg version="1.1" id="Calque_1" xmlns="http://www.w3.org/2000/svg" xmlns:xlink="http://www.w3.org/1999/xlink" x="0px" y="0px"
	 viewBox="0 0 135.2 69.4" style="enable-background:new 0 0 135.2 69.4;" xml:space="preserve">
<style type="text/css">
	.st0{fill:#FFFFFF;}
</style>
<g>
	<g>
		<path class="st0" d="M58.5,28.8c0.7-1.2,1.2-2.5,1.6-3.9c0.4-1.4,0.6-2.9,0.6-4.4c0-2.9-0.5-5.6-1.4-8.1c-0.9-2.5-2.2-4.7-3.7-6.5
			c-1.5-1.8-3.4-3.2-5.4-4.3C48.1,0.5,46,0,43.7,0H0v69h43.7c2.3,0,4.5-0.5,6.5-1.6c2.1-1.1,3.9-2.5,5.4-4.3c1.5-1.8,2.8-4,3.7-6.5
			c0.9-2.5,1.4-5.2,1.4-8.1c0-1.5-0.2-2.9-0.7-4.2c-0.4-1.3-1-2.6-1.7-3.8c-0.7-1.2-1.4-2.2-2.2-3.2c-0.8-1-1.5-1.8-2.3-2.7
			c0.7-0.7,1.5-1.6,2.3-2.6C57.1,31.1,57.8,30,58.5,28.8z M46.1,37.9c1.8,1.3,3.3,3,4.5,5c1.3,2,1.9,3.9,1.9,5.9
			c0,1.5-0.2,3-0.7,4.6c-0.4,1.6-1.1,3-1.9,4.3C49.1,59,48,60,46.8,60.8c-1.3,0.8-2.7,1.2-4.3,1.2h-34V42.5h16.4V40H7.7V7h34.5
			c1.6,0,3.1,0.4,4.3,1.2c1.3,0.8,2.3,1.9,3.2,3.2c0.9,1.3,1.6,2.7,2,4.3c0.5,1.6,0.7,3.1,0.7,4.6c0,1.8-0.6,3.8-1.9,5.8
			c-1.3,2-2.7,3.7-4.4,4.9H32.3v7H46.1z"/>
		<rect x="12.4" y="52" class="st0" width="12.1" height="2.5"/>
		<polygon class="st0" points="127.9,0.2 95,56.8 83.5,37.1 104.9,0.2 97.6,0.2 79.8,30.8 62,0.2 54.8,0.2 76.2,37.1 64.7,56.8 
			64.7,69.4 79.8,43.4 95,69.4 135.2,0.2 		"/>
	</g>
</g>
</svg>
