<?xml version="1.0" encoding="utf-8"?>
<!-- Generator: Adobe Illustrator 25.0.0, SVG Export Plug-In . SVG Version: 6.00 Build 0)  -->
<svg version="1.1" id="Calque_1" focusable="false" xmlns="http://www.w3.org/2000/svg" xmlns:xlink="http://www.w3.org/1999/xlink"
	 x="0px" y="0px" viewBox="0 0 500 500" style="enable-background:new 0 0 500 500;" xml:space="preserve">
<style type="text/css">
	.st0{fill:#FED3A8;}
</style>
<path class="st0" d="M249.5-0.5c-138.1,0-250,111.9-250,250s111.9,250,250,250s250-111.9,250-250S387.6-0.5,249.5-0.5z M279.2,335.3
	c-19.3,0-43.6-9.6-53.1-27.6c-17.5,69.1-16.1,79.5-54.7,132.3c-4,1.5-2.7,1.8-5.3-1.1c-1.4-14.5-3.4-28.7-3.4-43.2
	c0-46.9,21.6-114.6,32.2-160.1c-5.7-11.7-7.3-26-7.3-38.8c0-61.2,71.9-70.4,71.9-19.8c0,29.9-20.2,57.9-20.2,86.8
	c0,19.8,16.3,33.5,35.4,33.5c52.8,0,69.1-76.3,69.1-116.9c0-54.4-38.6-84.1-90.7-84.1c-60.6,0-107.5,43.6-107.5,105.2
	c0,29.6,18.1,44.8,18.1,51.9c0,6-4.4,27.1-11.9,27.1c-18.4,0-48.7-30.6-48.7-84.5C103,111.4,180.6,59,259.2,59
	C331.3,59,397,108.6,397,184.6C397,256.1,360.5,335.3,279.2,335.3z"/>
</svg>
